<?xml version="1.0" encoding="utf-8"?>
<!-- Generator: Adobe Illustrator 24.0.2, SVG Export Plug-In . SVG Version: 6.00 Build 0)  -->
<svg version="1.0" id="Ebene_1" xmlns="http://www.w3.org/2000/svg" xmlns:xlink="http://www.w3.org/1999/xlink" x="0px" y="0px"
	 viewBox="0 0 226.4 80.3" style="enable-background:new 0 0 226.4 80.3;" xml:space="preserve">
<g>
	<path d="M19.8,36.4c0,2-1.6,3.2-4.2,3.2h-4.7v-6.4h4.7C18.1,33.2,19.8,34.2,19.8,36.4L19.8,36.4z M30.6,35.6L30.6,35.6
		c0-3.4-1-5.9-3-7.8c-2.3-2.3-5.9-3.7-11.7-3.7H0v32.5h10.9v-9.3H13l9.3,9.3h13l-11.1-11C28.1,43.7,30.6,40.4,30.6,35.6"/>
	<path d="M54.5,42.1c0,3.9-2.1,5.5-5,5.5s-5-1.7-5-5.8V24.1H33.4V42c0,10.8,6.3,15.2,16,15.2s16.2-4.4,16.2-15.5V24.1H54.5V42.1z"/>
</g>
<polygon points="89.9,35.6 79.9,35.6 79.9,24.1 69.1,24.1 69.1,56.6 79.9,56.6 79.9,45 89.9,45 89.9,56.6 100.7,56.6 100.7,24.1 
	89.9,24.1 "/>
<path d="M124,36.4c0,2-1.6,3.2-4.2,3.2h-4.7v-6.4h4.7C122.4,33.2,124,34.2,124,36.4L124,36.4z M134.8,35.6L134.8,35.6
	c0-3.4-1-5.9-3-7.8c-2.3-2.3-5.9-3.7-11.7-3.7h-15.9v32.5h10.9v-9.3h2.1l9.3,9.3h13l-11.1-11.1C132.3,43.7,134.8,40.4,134.8,35.6"/>
<g>
	<path d="M5.5,11.7c-0.4-0.3-1-0.5-1.7-0.5H1v3.7h2.8c0.3,0,0.6,0,0.9-0.1c0.3-0.1,0.5-0.2,0.7-0.4s0.4-0.4,0.5-0.6
		C6,13.6,6.1,13.3,6.1,13C6.1,12.5,5.9,12,5.5,11.7 M6.2,19.3l-2.6-3.5H1v3.5H0v-9h3.9c0.5,0,0.9,0.1,1.3,0.2c0.4,0.1,0.7,0.3,1,0.5
		s0.5,0.5,0.7,0.9c0.2,0.3,0.2,0.7,0.2,1.1c0,0.4-0.1,0.7-0.2,1c-0.1,0.3-0.3,0.6-0.5,0.8s-0.5,0.4-0.8,0.5s-0.6,0.2-1,0.3l2.8,3.7
		H6.2z"/>
	<polygon points="15.8,11.2 10.3,11.2 10.3,14.3 15.3,14.3 15.3,15.2 10.3,15.2 10.3,18.4 15.9,18.4 15.9,19.3 9.3,19.3 9.3,10.3 
		15.8,10.3 	"/>
	<g>
		<path d="M24.5,19.1c-0.6,0.3-1.3,0.4-2.1,0.4c-0.7,0-1.3-0.1-1.9-0.4c-0.6-0.2-1-0.6-1.4-1s-0.7-0.9-0.9-1.5
			c-0.3-0.5-0.4-1.1-0.4-1.8c0-0.6,0.1-1.2,0.3-1.8s0.5-1.1,0.9-1.5s0.9-0.8,1.4-1c0.6-0.3,1.2-0.4,1.8-0.4c0.4,0,0.7,0,1,0.1
			s0.6,0.1,0.9,0.2c0.3,0.1,0.5,0.2,0.8,0.4c0.2,0.2,0.5,0.3,0.7,0.5l-0.7,0.8c-0.2-0.2-0.4-0.3-0.5-0.4c-0.2-0.1-0.4-0.2-0.6-0.3
			c-0.2-0.1-0.5-0.2-0.7-0.2c-0.3-0.1-0.6-0.1-0.9-0.1c-0.5,0-1,0.1-1.4,0.3s-0.8,0.5-1.1,0.8s-0.5,0.7-0.7,1.2s-0.3,0.9-0.3,1.4
			s0.1,1,0.3,1.5s0.4,0.9,0.7,1.2s0.7,0.6,1.1,0.8c0.4,0.2,0.9,0.3,1.5,0.3c0.5,0,1-0.1,1.5-0.3s0.8-0.4,1.1-0.6v-2.2h-2.7v-0.9h3.7
			v3.6C25.6,18.5,25.1,18.8,24.5,19.1"/>
	</g>
	<rect x="28.6" y="10.3" width="1" height="9"/>
	<g>
		<path d="M40,13.4c-0.2-0.5-0.4-0.9-0.7-1.2c-0.3-0.3-0.7-0.6-1.1-0.8s-0.9-0.3-1.4-0.3s-1,0.1-1.4,0.3s-0.8,0.5-1.1,0.8
			c-0.3,0.3-0.6,0.7-0.7,1.2c-0.2,0.5-0.3,0.9-0.3,1.4s0.1,1,0.3,1.5c0.2,0.5,0.4,0.8,0.7,1.2c0.3,0.3,0.7,0.6,1.1,0.8
			s0.9,0.3,1.4,0.3s1-0.1,1.4-0.3s0.8-0.5,1.1-0.8c0.3-0.3,0.6-0.7,0.7-1.2c0.2-0.5,0.3-0.9,0.3-1.4C40.3,14.3,40.2,13.8,40,13.4
			 M41,16.6c-0.2,0.6-0.5,1.1-0.9,1.5s-0.9,0.8-1.5,1c-0.6,0.3-1.2,0.4-1.9,0.4c-0.7,0-1.3-0.1-1.9-0.4c-0.6-0.2-1-0.6-1.4-1
			s-0.7-0.9-0.9-1.5c-0.2-0.6-0.3-1.2-0.3-1.8s0.1-1.2,0.3-1.8c0.2-0.6,0.5-1.1,0.9-1.5s0.9-0.8,1.5-1c0.6-0.3,1.2-0.4,1.9-0.4
			c0.7,0,1.3,0.1,1.9,0.4c0.6,0.2,1,0.6,1.4,1s0.7,0.9,0.9,1.5c0.2,0.6,0.3,1.2,0.3,1.8C41.4,15.4,41.2,16,41,16.6"/>
	</g>
	<polygon points="49.9,10.3 50.9,10.3 50.9,19.3 50.1,19.3 44.2,11.9 44.2,19.3 43.2,19.3 43.2,10.3 44.2,10.3 49.9,17.5 	"/>
	<path d="M57,11.5l-2.1,4.6H59L57,11.5z M61.6,19.3h-1.1l-1.1-2.4h-4.9l-1.1,2.4h-1l4.1-9.1h1L61.6,19.3z"/>
	<polygon points="63.3,10.3 64.4,10.3 64.4,18.4 69.4,18.4 69.4,19.3 63.3,19.3 	"/>
	<polygon points="76.6,10.3 77.7,10.3 73.8,19.4 72.9,19.4 69.1,10.3 70.2,10.3 73.4,18.1 	"/>
	<polygon points="86.3,11.2 80.8,11.2 80.8,14.3 85.7,14.3 85.7,15.2 80.8,15.2 80.8,18.4 86.3,18.4 86.3,19.3 79.7,19.3 79.7,10.3 
		86.3,10.3 	"/>
	<g>
		<path d="M94.4,11.7c-0.4-0.3-1-0.5-1.7-0.5h-2.8v3.7h2.8c0.3,0,0.6,0,0.9-0.1s0.5-0.2,0.7-0.4s0.4-0.4,0.5-0.6
			c0.1-0.2,0.2-0.5,0.2-0.8C95,12.5,94.8,12,94.4,11.7 M95.1,19.3l-2.6-3.5h-2.6v3.5h-1v-9h3.9c0.5,0,0.9,0.1,1.3,0.2
			c0.4,0.1,0.7,0.3,1,0.5s0.5,0.5,0.7,0.9C96,12.2,96,12.6,96,13c0,0.4-0.1,0.7-0.2,1c-0.1,0.3-0.3,0.6-0.5,0.8s-0.5,0.4-0.8,0.5
			s-0.6,0.2-1,0.3l2.8,3.7H95.1z"/>
		<path d="M104.1,18c0.4-0.3,0.6-0.7,0.6-1.2s-0.2-0.9-0.6-1.2c-0.4-0.3-1-0.4-1.8-0.4h-2.8v3.2h3C103.2,18.4,103.7,18.3,104.1,18
			 M103.6,13.9c0.4-0.3,0.6-0.7,0.6-1.2s-0.2-0.8-0.5-1.1s-0.8-0.4-1.5-0.4h-2.7v3.1h2.7C102.7,14.3,103.2,14.2,103.6,13.9
			 M103.5,10.5c0.4,0.1,0.7,0.3,0.9,0.5c0.3,0.2,0.5,0.4,0.6,0.7s0.2,0.6,0.2,0.9c0,0.3,0,0.6-0.1,0.8s-0.2,0.4-0.3,0.6
			c-0.1,0.2-0.3,0.3-0.5,0.4c-0.2,0.1-0.3,0.2-0.5,0.3c0.3,0.1,0.5,0.2,0.8,0.3c0.2,0.1,0.4,0.3,0.6,0.4c0.2,0.2,0.3,0.4,0.4,0.6
			c0.1,0.2,0.2,0.5,0.2,0.8c0,0.4-0.1,0.7-0.2,1c-0.2,0.3-0.4,0.6-0.7,0.8s-0.6,0.4-1,0.5s-0.8,0.2-1.3,0.2h-4v-9h3.8
			C102.7,10.3,103.1,10.4,103.5,10.5"/>
	</g>
	<path d="M111,11.5l-2.1,4.6h4.1L111,11.5z M115.6,19.3h-1.1l-1.1-2.4h-4.9l-1.1,2.4h-1l4.1-9.1h1L115.6,19.3z"/>
	<polygon points="123.8,10.3 124.8,10.3 124.8,19.3 124,19.3 118.1,11.9 118.1,19.3 117.1,19.3 117.1,10.3 118.1,10.3 123.8,17.5 	
		"/>
	<g>
		<path d="M133.4,13.4c-0.2-0.4-0.4-0.8-0.7-1.1s-0.7-0.6-1.2-0.8s-1-0.3-1.5-0.3h-2.2v7.1h2.1c0.6,0,1.1-0.1,1.5-0.3
			c0.5-0.2,0.9-0.4,1.2-0.8c0.3-0.3,0.6-0.7,0.7-1.1c0.2-0.4,0.3-0.9,0.3-1.4C133.7,14.3,133.6,13.9,133.4,13.4 M134.4,16.6
			c-0.2,0.6-0.6,1-1,1.4s-0.9,0.7-1.5,1c-0.6,0.2-1.2,0.3-1.9,0.3h-3.2v-9h3.1c0.7,0,1.3,0.1,1.9,0.3c0.6,0.2,1.1,0.5,1.5,0.9
			s0.8,0.9,1,1.4s0.3,1.1,0.3,1.8C134.7,15.4,134.6,16,134.4,16.6"/>
	</g>
</g>
<g>
	<path d="M1.9,72l-1.7,0.5L0,71.7l2.2-0.8H3V80H2L1.9,72L1.9,72z"/>
	<path d="M5,75.6L5,75.6c0-2.5,1.5-4.7,3.9-4.7c2.3,0,3.8,2.1,3.8,4.6l0,0c0,2.5-1.5,4.7-3.8,4.7C6.5,80.2,5,78.1,5,75.6z
		 M11.7,75.6L11.7,75.6c0-2-1.1-3.8-2.8-3.8s-2.8,1.7-2.8,3.7l0,0c0,2,1.1,3.7,2.8,3.7C10.6,79.3,11.7,77.5,11.7,75.6z"/>
	<path d="M14.4,75.6L14.4,75.6c0-2.5,1.5-4.7,3.9-4.7c2.3,0,3.8,2.1,3.8,4.6l0,0c0,2.5-1.5,4.7-3.8,4.7
		C15.9,80.2,14.4,78.1,14.4,75.6z M21.1,75.6L21.1,75.6c0-2-1.1-3.8-2.8-3.8s-2.8,1.7-2.8,3.7l0,0c0,2,1.1,3.7,2.8,3.7
		C20,79.3,21.1,77.5,21.1,75.6z"/>
	<path d="M26,78.6l0.7-0.6c0.6,0.8,1.1,1.3,2.1,1.3s1.8-0.7,1.8-2.2v-6h1v6c0,1.1-0.3,1.9-0.8,2.4s-1.2,0.7-2,0.7
		C27.4,80.2,26.6,79.5,26,78.6z"/>
	<path d="M37,71h1l4.1,9.1H41l-1.1-2.4h-5l-1.1,2.4h-1L37,71z M39.5,76.7l-2.1-4.6l-2.1,4.6H39.5z"/>
	<path d="M43.8,71h1v4h5.3v-4h1v9h-1v-4.1h-5.3V80h-1V71z"/>
	<path d="M53.7,71h3.9c1.1,0,2,0.3,2.6,0.9c0.4,0.4,0.7,1.1,0.7,1.8l0,0c0,1.5-1,2.4-2.5,2.6l2.8,3.7h-1.3l-2.6-3.5h-2.5V80h-1
		L53.7,71L53.7,71z M57.5,75.6c1.4,0,2.3-0.7,2.3-1.9l0,0c0-1.1-0.9-1.8-2.3-1.8h-2.7v3.7C54.8,75.6,57.5,75.6,57.5,75.6z"/>
	<path d="M63.1,71h6.6v0.9h-5.6V75h5v0.9h-5v3.2h5.6V80h-6.6V71z"/>
	<path d="M75.6,79.4l5.9-7.4h-5.7v-0.9h7.1v0.7L77,79.2h5.9v0.9h-7.3C75.6,80.1,75.6,79.4,75.6,79.4z"/>
	<path d="M84.7,76.3v-5.2h1v5.2c0,1.9,1.1,3,2.8,3s2.7-1,2.7-3v-5.2h1v5.2c0,2.6-1.5,4-3.8,4C86.2,80.2,84.7,78.8,84.7,76.3z"/>
	<path d="M94.8,71h1v5.4L101,71h1.3l-3.9,3.9l4.1,5.1h-1.3l-3.5-4.4l-1.9,1.9v2.4h-1L94.8,71L94.8,71z"/>
	<path d="M104,76.3v-5.2h1v5.2c0,1.9,1.1,3,2.8,3s2.7-1,2.7-3v-5.2h1v5.2c0,2.6-1.5,4-3.8,4C105.5,80.2,104,78.8,104,76.3z"/>
	<path d="M114.1,71h1l5.7,7.2V71h1v9H121l-5.9-7.4V80h-1V71z"/>
	<path d="M124.4,71h6.5v0.9h-5.5v3.2h4.9V76h-4.9v3.9h-1V71z"/>
	<path d="M135.4,72h-3.1v-0.9h7.1V72h-3.1v8.1h-1V72H135.4z"/>
</g>
<g>
	<polygon points="130,0 186.7,56.7 190.4,56.7 133.7,0 	"/>
	<polygon points="172.6,47 168.9,47 139.6,17.8 139.6,14.1 	"/>
	<polygon points="164.4,47 160.7,47 139.6,25.9 139.6,22.2 	"/>
	<polygon points="156.3,47 152.5,47 139.6,34.1 139.6,30.4 	"/>
	<polygon points="138.1,0 194.8,56.7 198.6,56.7 141.9,0 	"/>
	<polygon points="146.3,0 203,56.7 206.7,56.7 150,0 	"/>
	<polygon points="206.7,48.5 206.7,52.2 154.5,0 158.2,0 	"/>
	<polygon points="206.7,40.3 206.7,44 172.2,9.6 175.9,9.6 	"/>
	<polygon points="213.7,39.2 210,39.2 170.8,0 174.5,0 	"/>
	<polygon points="221.9,39.2 218.2,39.2 179,0 182.7,0 	"/>
	<polygon points="226.4,35.5 226.4,39.2 187.1,0 190.8,0 	"/>
	<polygon points="226.4,27.3 226.4,31 204.9,9.6 208.6,9.6 	"/>
	<polygon points="226.4,19.2 226.4,22.9 213.1,9.6 216.8,9.6 	"/>
</g>
</svg>
