<?xml version="1.0" standalone="no"?><!DOCTYPE svg PUBLIC "-//W3C//DTD SVG 1.1//EN" "http://www.w3.org/Graphics/SVG/1.1/DTD/svg11.dtd"><svg class="icon" height="512" viewBox="0 0 1024 1024" version="1.1" xmlns="http://www.w3.org/2000/svg"><path d="M196.3 741.1c0 21.8 17.7 39.6 39.6 39.6 21.8 0 39.6-17.7 39.6-39.6 0-21.8-17.7-39.6-39.6-39.6-21.9 0.1-39.6 17.8-39.6 39.6m240.8-20.9c21.8 0 39.6-17.7 39.6-39.6 0-21.8-17.7-39.6-39.6-39.6-21.8 0-39.6 17.7-39.6 39.6 0.1 21.9 17.8 39.6 39.6 39.6zM649.5 627c21.8 0 39.6-17.7 39.6-39.6 0-21.8-17.7-39.6-39.6-39.6-21.8 0-39.6 17.7-39.6 39.6 0.1 21.9 17.8 39.6 39.6 39.6z m-371.2-39.6c21.8 0 39.6-17.7 39.6-39.6 0-21.8-17.7-39.6-39.6-39.6-21.8 0-39.6 17.7-39.6 39.6 0.1 21.9 17.8 39.6 39.6 39.6z m393.6-134.3c21.8 0 39.6-17.7 39.6-39.6 0-21.8-17.7-39.6-39.6-39.6-21.8 0-39.6 17.7-39.6 39.6 0.1 21.9 17.8 39.6 39.6 39.6z m-294.8-56.6c21.8 0 39.6-17.7 39.6-39.6 0-21.8-17.7-39.6-39.6-39.6-21.8 0-39.6 17.7-39.6 39.6 0.1 21.9 17.8 39.6 39.6 39.6z m294.8-123.8c21.8 0 39.6-17.7 39.6-39.6 0-21.8-17.7-39.6-39.6-39.6-21.8 0-39.6 17.7-39.6 39.6 0.1 21.9 17.8 39.6 39.6 39.6zM495.8 547.8c21.8 0 39.6-17.7 39.6-39.6 0-21.8-17.7-39.6-39.6-39.6-21.8 0-39.6 17.7-39.6 39.6 0 21.9 17.8 39.6 39.6 39.6zM812 436.1c21.8 0 39.6-17.7 39.6-39.6 0-21.8-17.7-39.6-39.6-39.6-21.8 0-39.6 17.7-39.6 39.6 0.1 21.9 17.8 39.6 39.6 39.6z m22-184.4c21.8-1 38.7-19.5 37.7-41.3-1-21.8-19.5-38.7-41.3-37.7-21.8 1-38.7 19.5-37.7 41.3 0.9 21.8 19.5 38.7 41.3 37.7zM553.3 374.5c21.8 0 39.6-17.7 39.6-39.6 0-21.8-17.7-39.6-39.6-39.6-21.8 0-39.6 17.7-39.6 39.6 0 21.9 17.7 39.6 39.6 39.6z"  /><path d="M131.7 885.3v-817H68.1v891.3h891.2v-74.3H131.7z"  /></svg>